<?xml version="1.0" encoding="UTF-8" standalone="no"?>
<!DOCTYPE svg PUBLIC "-//W3C//DTD SVG 1.1//EN" "http://www.w3.org/Graphics/SVG/1.1/DTD/svg11.dtd">
<svg xmlns="http://www.w3.org/2000/svg" version="1.1" viewBox="0.00 0.00 626.00 399.00">
<g stroke-width="2.00" fill="none" stroke-linecap="butt">
<path stroke="#42037a" vector-effect="non-scaling-stroke" d="
  M 236.69 152.62
  Q 273.12 152.75 309.50 152.61
  Q 309.96 152.61 316.67 153.56
  A 0.29 0.29 0.0 0 1 316.84 154.04
  Q 314.91 156.07 314.34 156.38
  Q 304.70 161.60 296.42 164.90
  Q 291.53 166.84 287.94 166.93
  Q 264.51 167.52 236.26 166.88"
/>
<path stroke="#1b4877" vector-effect="non-scaling-stroke" d="
  M 236.26 166.88
  L 180.72 167.23
  A 3.40 3.35 32.4 0 0 179.42 167.51
  C 172.41 170.52 165.69 174.86 159.19 178.97
  C 157.03 180.34 154.06 181.56 151.74 181.57
  Q 99.14 181.62 83.75 181.68
  Q 80.32 181.69 78.48 181.48
  A 2.91 2.88 -25.0 0 1 77.28 181.05
  Q 76.92 180.82 75.52 178.74
  C 73.02 175.04 68.27 173.41 64.05 174.04
  C 56.43 175.17 51.76 183.80 54.97 190.65
  C 57.96 197.03 63.80 198.43 70.28 196.68
  C 72.96 195.95 75.55 192.59 76.83 190.98
  A 3.77 3.75 -70.6 0 1 79.76 189.57
  Q 113.49 189.57 152.76 189.55
  Q 155.20 189.55 157.36 188.39
  Q 165.55 183.96 177.78 176.54
  Q 181.02 174.58 184.50 174.63
  Q 207.76 174.95 230.92 174.77"
/>
<path stroke="#42037a" vector-effect="non-scaling-stroke" d="
  M 230.92 174.77
  Q 250.26 174.86 269.50 174.77
  Q 271.96 174.76 273.60 175.42
  A 0.94 0.94 0.0 0 1 273.69 177.13
  L 261.34 183.65
  A 0.43 0.42 64.8 0 0 261.15 184.19
  L 261.16 184.21
  A 0.65 0.64 65.4 0 0 262.01 184.53
  C 268.16 181.73 273.15 178.58 280.11 175.79
  Q 294.61 169.98 299.09 167.91
  C 304.64 165.34 310.28 163.76 316.21 160.93
  C 323.29 157.56 331.50 155.57 338.75 154.48
  C 347.89 153.11 360.04 152.18 370.39 153.20
  Q 379.49 154.10 380.56 154.43
  Q 395.29 158.93 405.41 165.85
  Q 409.67 168.76 425.76 180.99
  Q 429.13 183.55 438.95 190.07
  C 447.04 195.44 456.36 197.25 466.07 196.57
  Q 466.39 196.55 466.54 196.85
  Q 466.63 197.02 466.44 197.19"
/>
<path stroke="#808080" vector-effect="non-scaling-stroke" d="
  M 466.44 197.19
  Q 465.14 199.43 465.12 201.25
  Q 464.76 228.67 465.15 257.31
  A 4.13 4.07 21.6 0 0 466.44 260.24
  Q 470.51 264.06 474.57 261.33
  Q 476.93 259.74 477.02 257.95
  Q 477.21 254.08 477.19 247.20
  A 1.68 1.67 -0.5 0 1 478.84 245.53
  Q 486.42 245.38 498.00 245.48
  C 504.54 245.54 513.00 248.28 516.61 254.39
  C 517.77 256.36 517.84 259.17 519.77 260.75
  Q 522.35 262.84 524.70 262.47
  C 533.28 261.10 528.90 250.24 525.46 246.73
  Q 523.44 244.66 519.44 240.78
  A 0.67 0.67 0.0 0 1 519.46 239.80
  Q 525.71 234.07 526.59 232.55
  C 533.99 219.80 529.11 207.60 517.57 200.15"
/>
<path stroke="#42037a" vector-effect="non-scaling-stroke" d="
  M 517.57 200.15
  Q 510.75 192.46 500.08 189.18
  Q 485.17 184.61 474.98 183.58
  Q 465.99 182.67 461.41 182.27
  C 454.32 181.64 449.30 180.24 443.83 176.43
  Q 425.62 163.74 410.68 155.18
  Q 404.42 151.60 394.43 147.96
  C 384.58 144.37 372.15 143.91 362.00 144.32
  C 352.87 144.70 343.61 145.29 332.99 145.17
  Q 285.73 144.66 238.46 144.59"
/>
<path stroke="#1b4877" vector-effect="non-scaling-stroke" d="
  M 238.46 144.59
  Q 210.66 144.48 182.86 144.72
  Q 177.70 144.77 175.42 146.15
  Q 166.57 151.50 159.45 155.71
  Q 155.33 158.14 152.79 158.15
  Q 131.70 158.20 120.98 158.05
  Q 116.09 157.98 111.16 155.10
  Q 100.21 148.72 98.87 147.94
  C 92.25 144.08 86.79 144.27 78.96 144.34
  A 2.35 2.35 0.0 0 1 76.83 143.02
  Q 74.58 138.37 69.40 137.08
  Q 60.26 134.81 55.84 142.25
  Q 52.82 147.33 54.67 152.36
  Q 57.64 160.45 66.97 160.13
  C 71.81 159.96 74.42 157.14 77.01 153.35
  A 2.73 2.72 -73.1 0 1 79.22 152.16
  C 83.97 152.08 90.57 151.84 94.75 154.29
  Q 104.98 160.30 111.37 163.84
  Q 114.40 165.53 117.25 165.54
  Q 146.53 165.69 151.99 165.68
  Q 157.52 165.67 159.60 164.53
  Q 163.28 162.51 174.12 155.29
  Q 178.63 152.29 185.25 152.32
  Q 211.00 152.45 236.69 152.62"
/>
<path stroke="#5c4af1" vector-effect="non-scaling-stroke" d="
  M 238.46 144.59
  L 236.69 152.62"
/>
<path stroke="#c182fa" vector-effect="non-scaling-stroke" d="
  M 517.57 200.15
  Q 508.64 195.69 497.75 195.62
  Q 480.65 195.53 471.75 195.66
  Q 469.03 195.70 466.44 197.19"
/>
<path stroke="#5c4af1" vector-effect="non-scaling-stroke" d="
  M 230.92 174.77
  L 236.26 166.88"
/>
<path stroke="#42037a" vector-effect="non-scaling-stroke" d="
  M 423.46 187.19
  Q 416.89 178.58 408.29 172.94
  Q 399.61 167.24 389.66 165.47
  C 377.87 163.37 350.04 162.19 353.33 182.22
  C 353.97 186.11 359.11 186.89 361.92 187.37
  A 0.52 0.52 0.0 0 0 362.26 186.41
  L 357.84 183.86
  A 2.80 2.79 19.8 0 1 356.48 180.98
  Q 357.90 172.37 366.77 171.18
  Q 379.08 169.53 389.71 174.01
  Q 408.11 181.77 416.03 185.70
  Q 419.10 187.22 422.86 188.11
  A 0.58 0.58 0.0 0 0 423.46 187.19"
/>
<path stroke="#42037a" vector-effect="non-scaling-stroke" d="
  M 275.24 191.80
  Q 276.70 192.16 278.95 191.87
  Q 288.70 190.64 294.50 190.51
  C 299.50 190.40 306.05 191.97 310.76 192.23
  Q 318.50 192.66 324.95 191.54
  A 0.97 0.97 0.0 0 0 325.72 190.32
  Q 325.07 187.94 323.48 186.27
  Q 315.82 178.24 304.74 180.04
  C 295.82 181.48 291.22 182.35 284.62 185.93
  Q 282.05 187.33 275.12 190.64
  A 0.62 0.62 0.0 0 0 275.24 191.80"
/>
<path stroke="#808080" vector-effect="non-scaling-stroke" d="
  M 157.56 201.25
  A 5.34 5.34 0.0 0 0 152.22 195.91
  L 151.32 195.91
  A 5.34 5.34 0.0 0 0 145.98 201.25
  L 145.98 256.97
  A 5.34 5.34 0.0 0 0 151.32 262.31
  L 152.22 262.31
  A 5.34 5.34 0.0 0 0 157.56 256.97
  L 157.56 201.25"
/>
<path stroke="#808080" vector-effect="non-scaling-stroke" d="
  M 210.06 262.42
  Q 213.51 262.42 215.24 259.85
  Q 226.29 243.38 239.17 223.67
  A 1.24 1.24 0.0 0 1 241.42 224.09
  Q 241.50 224.48 241.52 226.25
  Q 241.54 228.24 241.43 253.17
  C 241.41 257.80 241.06 261.13 245.78 262.22
  Q 248.96 262.96 251.51 260.81
  C 253.25 259.34 253.18 256.90 253.18 254.50
  Q 253.16 233.16 253.10 202.75
  Q 253.10 200.15 252.22 197.96
  A 1.50 1.46 -88.2 0 0 251.51 197.18
  Q 247.18 194.96 243.45 197.04
  A 3.21 3.20 -87.8 0 0 242.34 198.07
  Q 232.15 213.30 218.30 234.37
  C 215.43 238.74 213.96 241.61 211.27 244.78
  Q 210.55 245.62 210.05 245.62
  Q 209.56 245.62 208.84 244.78
  C 206.14 241.62 204.67 238.75 201.79 234.38
  Q 187.91 213.33 177.70 198.12
  A 3.21 3.20 87.7 0 0 176.59 197.09
  Q 172.85 195.01 168.53 197.24
  A 1.50 1.46 88.1 0 0 167.82 198.02
  Q 166.94 200.21 166.95 202.81
  Q 166.93 233.22 166.94 254.56
  C 166.94 256.96 166.88 259.40 168.62 260.87
  Q 171.17 263.01 174.35 262.27
  C 179.07 261.17 178.71 257.84 178.69 253.21
  Q 178.54 228.28 178.56 226.29
  Q 178.58 224.52 178.66 224.13
  A 1.24 1.24 0.0 0 1 180.91 223.71
  Q 193.81 243.40 204.89 259.86
  Q 206.62 262.42 210.06 262.42"
/>
<path stroke="#808080" vector-effect="non-scaling-stroke" d="
  M 353.57 207.88
  Q 353.63 208.07 353.62 208.78
  Q 353.57 226.39 353.56 252.17
  C 353.56 257.54 353.25 261.52 359.05 262.31
  Q 362.37 262.77 364.32 260.32
  Q 365.61 258.70 365.62 254.82
  Q 365.65 226.56 365.69 208.75
  Q 365.70 206.51 367.90 206.67
  C 373.61 207.08 379.81 206.79 385.76 206.78
  Q 390.07 206.77 391.97 203.37
  C 394.99 197.95 389.29 196.09 385.27 196.04
  Q 369.83 195.84 334.25 196.18
  Q 330.47 196.22 328.66 197.22
  A 2.09 2.07 89.7 0 0 327.83 198.07
  C 325.12 203.21 329.11 206.73 334.04 206.73
  Q 347.35 206.73 352.18 206.83
  A 1.48 1.48 0.0 0 1 353.57 207.88"
/>
<path stroke="#808080" vector-effect="non-scaling-stroke" d="
  M 78.57 245.51
  Q 79.36 245.29 80.25 245.31
  Q 106.52 245.74 122.79 245.45
  Q 125.49 245.40 125.55 248.24
  Q 125.66 252.58 125.61 257.07
  Q 125.59 259.30 127.17 260.61
  Q 131.97 264.58 135.60 260.64
  C 137.32 258.76 137.33 256.31 137.34 253.51
  Q 137.42 236.84 137.25 224.75
  Q 137.05 210.71 125.67 203.10
  Q 124.05 202.02 117.54 198.70
  A 14.07 14.05 64.2 0 0 113.95 197.45
  Q 104.84 195.61 94.40 196.66
  C 81.75 197.94 66.37 208.20 66.05 222.75
  Q 65.99 225.41 66.07 256.28
  Q 66.09 261.87 71.44 262.26
  Q 77.30 262.68 77.42 256.23
  Q 77.53 249.96 77.64 246.71
  A 1.29 1.29 0.0 0 1 78.57 245.51"
/>
<path stroke="#808080" vector-effect="non-scaling-stroke" d="
  M 459.56 229.29
  A 33.18 33.18 0.0 0 0 426.38 196.11
  A 33.18 33.18 0.0 0 0 393.20 229.29
  A 33.18 33.18 0.0 0 0 426.38 262.47
  A 33.18 33.18 0.0 0 0 459.56 229.29"
/>
<path stroke="#808080" vector-effect="non-scaling-stroke" d="
  M 326.12 229.81
  A 32.61 32.61 0.0 0 0 293.51 197.20
  A 32.61 32.61 0.0 0 0 260.90 229.81
  A 32.61 32.61 0.0 0 0 293.51 262.42
  A 32.61 32.61 0.0 0 0 326.12 229.81"
/>
<path stroke="#808080" vector-effect="non-scaling-stroke" d="
  M 477.21 208.23
  L 477.13 233.25
  A 1.55 1.55 0.0 0 0 478.67 234.80
  L 498.89 234.87
  A 19.27 13.70 0.2 0 0 518.21 221.24
  L 518.21 220.52
  A 19.27 13.70 0.2 0 0 498.99 206.75
  L 478.77 206.68
  A 1.55 1.55 0.0 0 0 477.21 208.23"
/>
<path stroke="#808080" vector-effect="non-scaling-stroke" d="
  M 79.51 234.95
  L 123.73 234.87
  A 2.06 2.06 0.0 0 0 125.79 232.81
  L 125.78 225.41
  A 21.94 18.58 -0.1 0 0 103.81 206.87
  L 99.35 206.87
  A 21.94 18.58 -0.1 0 0 77.44 225.49
  L 77.45 232.89
  A 2.06 2.06 0.0 0 0 79.51 234.95"
/>
<path stroke="#808080" vector-effect="non-scaling-stroke" d="
  M 448.42 229.28
  A 22.12 22.12 0.0 0 0 426.30 207.16
  A 22.12 22.12 0.0 0 0 404.18 229.28
  A 22.12 22.12 0.0 0 0 426.30 251.40
  A 22.12 22.12 0.0 0 0 448.42 229.28"
/>
<path stroke="#808080" vector-effect="non-scaling-stroke" d="
  M 315.18 229.89
  A 21.64 21.64 0.0 0 0 293.54 208.25
  A 21.64 21.64 0.0 0 0 271.90 229.89
  A 21.64 21.64 0.0 0 0 293.54 251.53
  A 21.64 21.64 0.0 0 0 315.18 229.89"
/>
</g>
<path fill="#000000" d="
  M 626.00 0.00
  L 626.00 399.00
  L 0.00 399.00
  L 0.00 0.00
  L 626.00 0.00
  Z
  M 236.69 152.62
  Q 273.12 152.75 309.50 152.61
  Q 309.96 152.61 316.67 153.56
  A 0.29 0.29 0.0 0 1 316.84 154.04
  Q 314.91 156.07 314.34 156.38
  Q 304.70 161.60 296.42 164.90
  Q 291.53 166.84 287.94 166.93
  Q 264.51 167.52 236.26 166.88
  L 180.72 167.23
  A 3.40 3.35 32.4 0 0 179.42 167.51
  C 172.41 170.52 165.69 174.86 159.19 178.97
  C 157.03 180.34 154.06 181.56 151.74 181.57
  Q 99.14 181.62 83.75 181.68
  Q 80.32 181.69 78.48 181.48
  A 2.91 2.88 -25.0 0 1 77.28 181.05
  Q 76.92 180.82 75.52 178.74
  C 73.02 175.04 68.27 173.41 64.05 174.04
  C 56.43 175.17 51.76 183.80 54.97 190.65
  C 57.96 197.03 63.80 198.43 70.28 196.68
  C 72.96 195.95 75.55 192.59 76.83 190.98
  A 3.77 3.75 -70.6 0 1 79.76 189.57
  Q 113.49 189.57 152.76 189.55
  Q 155.20 189.55 157.36 188.39
  Q 165.55 183.96 177.78 176.54
  Q 181.02 174.58 184.50 174.63
  Q 207.76 174.95 230.92 174.77
  Q 250.26 174.86 269.50 174.77
  Q 271.96 174.76 273.60 175.42
  A 0.94 0.94 0.0 0 1 273.69 177.13
  L 261.34 183.65
  A 0.43 0.42 64.8 0 0 261.15 184.19
  L 261.16 184.21
  A 0.65 0.64 65.4 0 0 262.01 184.53
  C 268.16 181.73 273.15 178.58 280.11 175.79
  Q 294.61 169.98 299.09 167.91
  C 304.64 165.34 310.28 163.76 316.21 160.93
  C 323.29 157.56 331.50 155.57 338.75 154.48
  C 347.89 153.11 360.04 152.18 370.39 153.20
  Q 379.49 154.10 380.56 154.43
  Q 395.29 158.93 405.41 165.85
  Q 409.67 168.76 425.76 180.99
  Q 429.13 183.55 438.95 190.07
  C 447.04 195.44 456.36 197.25 466.07 196.57
  Q 466.39 196.55 466.54 196.85
  Q 466.63 197.02 466.44 197.19
  Q 465.14 199.43 465.12 201.25
  Q 464.76 228.67 465.15 257.31
  A 4.13 4.07 21.6 0 0 466.44 260.24
  Q 470.51 264.06 474.57 261.33
  Q 476.93 259.74 477.02 257.95
  Q 477.21 254.08 477.19 247.20
  A 1.68 1.67 -0.5 0 1 478.84 245.53
  Q 486.42 245.38 498.00 245.48
  C 504.54 245.54 513.00 248.28 516.61 254.39
  C 517.77 256.36 517.84 259.17 519.77 260.75
  Q 522.35 262.84 524.70 262.47
  C 533.28 261.10 528.90 250.24 525.46 246.73
  Q 523.44 244.66 519.44 240.78
  A 0.67 0.67 0.0 0 1 519.46 239.80
  Q 525.71 234.07 526.59 232.55
  C 533.99 219.80 529.11 207.60 517.57 200.15
  Q 510.75 192.46 500.08 189.18
  Q 485.17 184.61 474.98 183.58
  Q 465.99 182.67 461.41 182.27
  C 454.32 181.64 449.30 180.24 443.83 176.43
  Q 425.62 163.74 410.68 155.18
  Q 404.42 151.60 394.43 147.96
  C 384.58 144.37 372.15 143.91 362.00 144.32
  C 352.87 144.70 343.61 145.29 332.99 145.17
  Q 285.73 144.66 238.46 144.59
  Q 210.66 144.48 182.86 144.72
  Q 177.70 144.77 175.42 146.15
  Q 166.57 151.50 159.45 155.71
  Q 155.33 158.14 152.79 158.15
  Q 131.70 158.20 120.98 158.05
  Q 116.09 157.98 111.16 155.10
  Q 100.21 148.72 98.87 147.94
  C 92.25 144.08 86.79 144.27 78.96 144.34
  A 2.35 2.35 0.0 0 1 76.83 143.02
  Q 74.58 138.37 69.40 137.08
  Q 60.26 134.81 55.84 142.25
  Q 52.82 147.33 54.67 152.36
  Q 57.64 160.45 66.97 160.13
  C 71.81 159.96 74.42 157.14 77.01 153.35
  A 2.73 2.72 -73.1 0 1 79.22 152.16
  C 83.97 152.08 90.57 151.84 94.75 154.29
  Q 104.98 160.30 111.37 163.84
  Q 114.40 165.53 117.25 165.54
  Q 146.53 165.69 151.99 165.68
  Q 157.52 165.67 159.60 164.53
  Q 163.28 162.51 174.12 155.29
  Q 178.63 152.29 185.25 152.32
  Q 211.00 152.45 236.69 152.62
  Z
  M 423.46 187.19
  Q 416.89 178.58 408.29 172.94
  Q 399.61 167.24 389.66 165.47
  C 377.87 163.37 350.04 162.19 353.33 182.22
  C 353.97 186.11 359.11 186.89 361.92 187.37
  A 0.52 0.52 0.0 0 0 362.26 186.41
  L 357.84 183.86
  A 2.80 2.79 19.8 0 1 356.48 180.98
  Q 357.90 172.37 366.77 171.18
  Q 379.08 169.53 389.71 174.01
  Q 408.11 181.77 416.03 185.70
  Q 419.10 187.22 422.86 188.11
  A 0.58 0.58 0.0 0 0 423.46 187.19
  Z
  M 275.24 191.80
  Q 276.70 192.16 278.95 191.87
  Q 288.70 190.64 294.50 190.51
  C 299.50 190.40 306.05 191.97 310.76 192.23
  Q 318.50 192.66 324.95 191.54
  A 0.97 0.97 0.0 0 0 325.72 190.32
  Q 325.07 187.94 323.48 186.27
  Q 315.82 178.24 304.74 180.04
  C 295.82 181.48 291.22 182.35 284.62 185.93
  Q 282.05 187.33 275.12 190.64
  A 0.62 0.62 0.0 0 0 275.24 191.80
  Z
  M 157.56 201.25
  A 5.34 5.34 0.0 0 0 152.22 195.91
  L 151.32 195.91
  A 5.34 5.34 0.0 0 0 145.98 201.25
  L 145.98 256.97
  A 5.34 5.34 0.0 0 0 151.32 262.31
  L 152.22 262.31
  A 5.34 5.34 0.0 0 0 157.56 256.97
  L 157.56 201.25
  Z
  M 210.06 262.42
  Q 213.51 262.42 215.24 259.85
  Q 226.29 243.38 239.17 223.67
  A 1.24 1.24 0.0 0 1 241.42 224.09
  Q 241.50 224.48 241.52 226.25
  Q 241.54 228.24 241.43 253.17
  C 241.41 257.80 241.06 261.13 245.78 262.22
  Q 248.96 262.96 251.51 260.81
  C 253.25 259.34 253.18 256.90 253.18 254.50
  Q 253.16 233.16 253.10 202.75
  Q 253.10 200.15 252.22 197.96
  A 1.50 1.46 -88.2 0 0 251.51 197.18
  Q 247.18 194.96 243.45 197.04
  A 3.21 3.20 -87.8 0 0 242.34 198.07
  Q 232.15 213.30 218.30 234.37
  C 215.43 238.74 213.96 241.61 211.27 244.78
  Q 210.55 245.62 210.05 245.62
  Q 209.56 245.62 208.84 244.78
  C 206.14 241.62 204.67 238.75 201.79 234.38
  Q 187.91 213.33 177.70 198.12
  A 3.21 3.20 87.7 0 0 176.59 197.09
  Q 172.85 195.01 168.53 197.24
  A 1.50 1.46 88.1 0 0 167.82 198.02
  Q 166.94 200.21 166.95 202.81
  Q 166.93 233.22 166.94 254.56
  C 166.94 256.96 166.88 259.40 168.62 260.87
  Q 171.17 263.01 174.35 262.27
  C 179.07 261.17 178.71 257.84 178.69 253.21
  Q 178.54 228.28 178.56 226.29
  Q 178.58 224.52 178.66 224.13
  A 1.24 1.24 0.0 0 1 180.91 223.71
  Q 193.81 243.40 204.89 259.86
  Q 206.62 262.42 210.06 262.42
  Z
  M 353.57 207.88
  Q 353.63 208.07 353.62 208.78
  Q 353.57 226.39 353.56 252.17
  C 353.56 257.54 353.25 261.52 359.05 262.31
  Q 362.37 262.77 364.32 260.32
  Q 365.61 258.70 365.62 254.82
  Q 365.65 226.56 365.69 208.75
  Q 365.70 206.51 367.90 206.67
  C 373.61 207.08 379.81 206.79 385.76 206.78
  Q 390.07 206.77 391.97 203.37
  C 394.99 197.95 389.29 196.09 385.27 196.04
  Q 369.83 195.84 334.25 196.18
  Q 330.47 196.22 328.66 197.22
  A 2.09 2.07 89.7 0 0 327.83 198.07
  C 325.12 203.21 329.11 206.73 334.04 206.73
  Q 347.35 206.73 352.18 206.83
  A 1.48 1.48 0.0 0 1 353.57 207.88
  Z
  M 78.57 245.51
  Q 79.36 245.29 80.25 245.31
  Q 106.52 245.74 122.79 245.45
  Q 125.49 245.40 125.55 248.24
  Q 125.66 252.58 125.61 257.07
  Q 125.59 259.30 127.17 260.61
  Q 131.97 264.58 135.60 260.64
  C 137.32 258.76 137.33 256.31 137.34 253.51
  Q 137.42 236.84 137.25 224.75
  Q 137.05 210.71 125.67 203.10
  Q 124.05 202.02 117.54 198.70
  A 14.07 14.05 64.2 0 0 113.95 197.45
  Q 104.84 195.61 94.40 196.66
  C 81.75 197.94 66.37 208.20 66.05 222.75
  Q 65.99 225.41 66.07 256.28
  Q 66.09 261.87 71.44 262.26
  Q 77.30 262.68 77.42 256.23
  Q 77.53 249.96 77.64 246.71
  A 1.29 1.29 0.0 0 1 78.57 245.51
  Z
  M 459.56 229.29
  A 33.18 33.18 0.0 0 0 426.38 196.11
  A 33.18 33.18 0.0 0 0 393.20 229.29
  A 33.18 33.18 0.0 0 0 426.38 262.47
  A 33.18 33.18 0.0 0 0 459.56 229.29
  Z
  M 326.12 229.81
  A 32.61 32.61 0.0 0 0 293.51 197.20
  A 32.61 32.61 0.0 0 0 260.90 229.81
  A 32.61 32.61 0.0 0 0 293.51 262.42
  A 32.61 32.61 0.0 0 0 326.12 229.81
  Z"
/>
<path fill="#358fee" d="
  M 238.46 144.59
  L 236.69 152.62
  Q 211.00 152.45 185.25 152.32
  Q 178.63 152.29 174.12 155.29
  Q 163.28 162.51 159.60 164.53
  Q 157.52 165.67 151.99 165.68
  Q 146.53 165.69 117.25 165.54
  Q 114.40 165.53 111.37 163.84
  Q 104.98 160.30 94.75 154.29
  C 90.57 151.84 83.97 152.08 79.22 152.16
  A 2.73 2.72 -73.1 0 0 77.01 153.35
  C 74.42 157.14 71.81 159.96 66.97 160.13
  Q 57.64 160.45 54.67 152.36
  Q 52.82 147.33 55.84 142.25
  Q 60.26 134.81 69.40 137.08
  Q 74.58 138.37 76.83 143.02
  A 2.35 2.35 0.0 0 0 78.96 144.34
  C 86.79 144.27 92.25 144.08 98.87 147.94
  Q 100.21 148.72 111.16 155.10
  Q 116.09 157.98 120.98 158.05
  Q 131.70 158.20 152.79 158.15
  Q 155.33 158.14 159.45 155.71
  Q 166.57 151.50 175.42 146.15
  Q 177.70 144.77 182.86 144.72
  Q 210.66 144.48 238.46 144.59
  Z"
/>
<path fill="#8305f4" d="
  M 517.57 200.15
  Q 508.64 195.69 497.75 195.62
  Q 480.65 195.53 471.75 195.66
  Q 469.03 195.70 466.44 197.19
  Q 466.63 197.02 466.54 196.85
  Q 466.39 196.55 466.07 196.57
  C 456.36 197.25 447.04 195.44 438.95 190.07
  Q 429.13 183.55 425.76 180.99
  Q 409.67 168.76 405.41 165.85
  Q 395.29 158.93 380.56 154.43
  Q 379.49 154.10 370.39 153.20
  C 360.04 152.18 347.89 153.11 338.75 154.48
  C 331.50 155.57 323.29 157.56 316.21 160.93
  C 310.28 163.76 304.64 165.34 299.09 167.91
  Q 294.61 169.98 280.11 175.79
  C 273.15 178.58 268.16 181.73 262.01 184.53
  A 0.65 0.64 65.4 0 1 261.16 184.21
  L 261.15 184.19
  A 0.43 0.42 64.8 0 1 261.34 183.65
  L 273.69 177.13
  A 0.94 0.94 0.0 0 0 273.60 175.42
  Q 271.96 174.76 269.50 174.77
  Q 250.26 174.86 230.92 174.77
  L 236.26 166.88
  Q 264.51 167.52 287.94 166.93
  Q 291.53 166.84 296.42 164.90
  Q 304.70 161.60 314.34 156.38
  Q 314.91 156.07 316.84 154.04
  A 0.29 0.29 0.0 0 0 316.67 153.56
  Q 309.96 152.61 309.50 152.61
  Q 273.12 152.75 236.69 152.62
  L 238.46 144.59
  Q 285.73 144.66 332.99 145.17
  C 343.61 145.29 352.87 144.70 362.00 144.32
  C 372.15 143.91 384.58 144.37 394.43 147.96
  Q 404.42 151.60 410.68 155.18
  Q 425.62 163.74 443.83 176.43
  C 449.30 180.24 454.32 181.64 461.41 182.27
  Q 465.99 182.67 474.98 183.58
  Q 485.17 184.61 500.08 189.18
  Q 510.75 192.46 517.57 200.15
  Z"
/>
<path fill="#8305f4" d="
  M 423.46 187.19
  A 0.58 0.58 0.0 0 1 422.86 188.11
  Q 419.10 187.22 416.03 185.70
  Q 408.11 181.77 389.71 174.01
  Q 379.08 169.53 366.77 171.18
  Q 357.90 172.37 356.48 180.98
  A 2.80 2.79 19.8 0 0 357.84 183.86
  L 362.26 186.41
  A 0.52 0.52 0.0 0 1 361.92 187.37
  C 359.11 186.89 353.97 186.11 353.33 182.22
  C 350.04 162.19 377.87 163.37 389.66 165.47
  Q 399.61 167.24 408.29 172.94
  Q 416.89 178.58 423.46 187.19
  Z"
/>
<path fill="#358fee" d="
  M 236.26 166.88
  L 230.92 174.77
  Q 207.76 174.95 184.50 174.63
  Q 181.02 174.58 177.78 176.54
  Q 165.55 183.96 157.36 188.39
  Q 155.20 189.55 152.76 189.55
  Q 113.49 189.57 79.76 189.57
  A 3.77 3.75 -70.6 0 0 76.83 190.98
  C 75.55 192.59 72.96 195.95 70.28 196.68
  C 63.80 198.43 57.96 197.03 54.97 190.65
  C 51.76 183.80 56.43 175.17 64.05 174.04
  C 68.27 173.41 73.02 175.04 75.52 178.74
  Q 76.92 180.82 77.28 181.05
  A 2.91 2.88 -25.0 0 0 78.48 181.48
  Q 80.32 181.69 83.75 181.68
  Q 99.14 181.62 151.74 181.57
  C 154.06 181.56 157.03 180.34 159.19 178.97
  C 165.69 174.86 172.41 170.52 179.42 167.51
  A 3.40 3.35 32.4 0 1 180.72 167.23
  L 236.26 166.88
  Z"
/>
<path fill="#8305f4" d="
  M 275.24 191.80
  A 0.62 0.62 0.0 0 1 275.12 190.64
  Q 282.05 187.33 284.62 185.93
  C 291.22 182.35 295.82 181.48 304.74 180.04
  Q 315.82 178.24 323.48 186.27
  Q 325.07 187.94 325.72 190.32
  A 0.97 0.97 0.0 0 1 324.95 191.54
  Q 318.50 192.66 310.76 192.23
  C 306.05 191.97 299.50 190.40 294.50 190.51
  Q 288.70 190.64 278.95 191.87
  Q 276.70 192.16 275.24 191.80
  Z"
/>
<path fill="#ffffff" d="
  M 517.57 200.15
  C 529.11 207.60 533.99 219.80 526.59 232.55
  Q 525.71 234.07 519.46 239.80
  A 0.67 0.67 0.0 0 0 519.44 240.78
  Q 523.44 244.66 525.46 246.73
  C 528.90 250.24 533.28 261.10 524.70 262.47
  Q 522.35 262.84 519.77 260.75
  C 517.84 259.17 517.77 256.36 516.61 254.39
  C 513.00 248.28 504.54 245.54 498.00 245.48
  Q 486.42 245.38 478.84 245.53
  A 1.68 1.67 -0.5 0 0 477.19 247.20
  Q 477.21 254.08 477.02 257.95
  Q 476.93 259.74 474.57 261.33
  Q 470.51 264.06 466.44 260.24
  A 4.13 4.07 21.6 0 1 465.15 257.31
  Q 464.76 228.67 465.12 201.25
  Q 465.14 199.43 466.44 197.19
  Q 469.03 195.70 471.75 195.66
  Q 480.65 195.53 497.75 195.62
  Q 508.64 195.69 517.57 200.15
  Z
  M 477.21 208.23
  L 477.13 233.25
  A 1.55 1.55 0.0 0 0 478.67 234.80
  L 498.89 234.87
  A 19.27 13.70 0.2 0 0 518.21 221.24
  L 518.21 220.52
  A 19.27 13.70 0.2 0 0 498.99 206.75
  L 478.77 206.68
  A 1.55 1.55 0.0 0 0 477.21 208.23
  Z"
/>
<rect fill="#ffffff" x="145.98" y="195.91" width="11.58" height="66.40" rx="5.34"/>
<path fill="#ffffff" d="
  M 210.05 245.62
  Q 210.55 245.62 211.27 244.78
  C 213.96 241.61 215.43 238.74 218.30 234.37
  Q 232.15 213.30 242.34 198.07
  A 3.21 3.20 -87.8 0 1 243.45 197.04
  Q 247.18 194.96 251.51 197.18
  A 1.50 1.46 -88.2 0 1 252.22 197.96
  Q 253.10 200.15 253.10 202.75
  Q 253.16 233.16 253.18 254.50
  C 253.18 256.90 253.25 259.34 251.51 260.81
  Q 248.96 262.96 245.78 262.22
  C 241.06 261.13 241.41 257.80 241.43 253.17
  Q 241.54 228.24 241.52 226.25
  Q 241.50 224.48 241.42 224.09
  A 1.24 1.24 0.0 0 0 239.17 223.67
  Q 226.29 243.38 215.24 259.85
  Q 213.51 262.42 210.06 262.42
  Q 206.62 262.42 204.89 259.86
  Q 193.81 243.40 180.91 223.71
  A 1.24 1.24 0.0 0 0 178.66 224.13
  Q 178.58 224.52 178.56 226.29
  Q 178.54 228.28 178.69 253.21
  C 178.71 257.84 179.07 261.17 174.35 262.27
  Q 171.17 263.01 168.62 260.87
  C 166.88 259.40 166.94 256.96 166.94 254.56
  Q 166.93 233.22 166.95 202.81
  Q 166.94 200.21 167.82 198.02
  A 1.50 1.46 88.1 0 1 168.53 197.24
  Q 172.85 195.01 176.59 197.09
  A 3.21 3.20 87.7 0 1 177.70 198.12
  Q 187.91 213.33 201.79 234.38
  C 204.67 238.75 206.14 241.62 208.84 244.78
  Q 209.56 245.62 210.05 245.62
  Z"
/>
<path fill="#ffffff" d="
  M 353.57 207.88
  A 1.48 1.48 0.0 0 0 352.18 206.83
  Q 347.35 206.73 334.04 206.73
  C 329.11 206.73 325.12 203.21 327.83 198.07
  A 2.09 2.07 89.7 0 1 328.66 197.22
  Q 330.47 196.22 334.25 196.18
  Q 369.83 195.84 385.27 196.04
  C 389.29 196.09 394.99 197.95 391.97 203.37
  Q 390.07 206.77 385.76 206.78
  C 379.81 206.79 373.61 207.08 367.90 206.67
  Q 365.70 206.51 365.69 208.75
  Q 365.65 226.56 365.62 254.82
  Q 365.61 258.70 364.32 260.32
  Q 362.37 262.77 359.05 262.31
  C 353.25 261.52 353.56 257.54 353.56 252.17
  Q 353.57 226.39 353.62 208.78
  Q 353.63 208.07 353.57 207.88
  Z"
/>
<path fill="#ffffff" d="
  M 78.57 245.51
  A 1.29 1.29 0.0 0 0 77.64 246.71
  Q 77.53 249.96 77.42 256.23
  Q 77.30 262.68 71.44 262.26
  Q 66.09 261.87 66.07 256.28
  Q 65.99 225.41 66.05 222.75
  C 66.37 208.20 81.75 197.94 94.40 196.66
  Q 104.84 195.61 113.95 197.45
  A 14.07 14.05 64.2 0 1 117.54 198.70
  Q 124.05 202.02 125.67 203.10
  Q 137.05 210.71 137.25 224.75
  Q 137.42 236.84 137.34 253.51
  C 137.33 256.31 137.32 258.76 135.60 260.64
  Q 131.97 264.58 127.17 260.61
  Q 125.59 259.30 125.61 257.07
  Q 125.66 252.58 125.55 248.24
  Q 125.49 245.40 122.79 245.45
  Q 106.52 245.74 80.25 245.31
  Q 79.36 245.29 78.57 245.51
  Z
  M 79.51 234.95
  L 123.73 234.87
  A 2.06 2.06 0.0 0 0 125.79 232.81
  L 125.78 225.41
  A 21.94 18.58 -0.1 0 0 103.81 206.87
  L 99.35 206.87
  A 21.94 18.58 -0.1 0 0 77.44 225.49
  L 77.45 232.89
  A 2.06 2.06 0.0 0 0 79.51 234.95
  Z"
/>
<path fill="#ffffff" d="
  M 459.56 229.29
  A 33.18 33.18 0.0 0 1 426.38 262.47
  A 33.18 33.18 0.0 0 1 393.20 229.29
  A 33.18 33.18 0.0 0 1 426.38 196.11
  A 33.18 33.18 0.0 0 1 459.56 229.29
  Z
  M 448.42 229.28
  A 22.12 22.12 0.0 0 0 426.30 207.16
  A 22.12 22.12 0.0 0 0 404.18 229.28
  A 22.12 22.12 0.0 0 0 426.30 251.40
  A 22.12 22.12 0.0 0 0 448.42 229.28
  Z"
/>
<path fill="#ffffff" d="
  M 326.12 229.81
  A 32.61 32.61 0.0 0 1 293.51 262.42
  A 32.61 32.61 0.0 0 1 260.90 229.81
  A 32.61 32.61 0.0 0 1 293.51 197.20
  A 32.61 32.61 0.0 0 1 326.12 229.81
  Z
  M 315.18 229.89
  A 21.64 21.64 0.0 0 0 293.54 208.25
  A 21.64 21.64 0.0 0 0 271.90 229.89
  A 21.64 21.64 0.0 0 0 293.54 251.53
  A 21.64 21.64 0.0 0 0 315.18 229.89
  Z"
/>
<path fill="#000000" d="
  M 79.51 234.95
  A 2.06 2.06 0.0 0 1 77.45 232.89
  L 77.44 225.49
  A 21.94 18.58 -0.1 0 1 99.35 206.87
  L 103.81 206.87
  A 21.94 18.58 -0.1 0 1 125.78 225.41
  L 125.79 232.81
  A 2.06 2.06 0.0 0 1 123.73 234.87
  L 79.51 234.95
  Z"
/>
<path fill="#000000" d="
  M 477.21 208.23
  A 1.55 1.55 0.0 0 1 478.77 206.68
  L 498.99 206.75
  A 19.27 13.70 0.2 0 1 518.21 220.52
  L 518.21 221.24
  A 19.27 13.70 0.2 0 1 498.89 234.87
  L 478.67 234.80
  A 1.55 1.55 0.0 0 1 477.13 233.25
  L 477.21 208.23
  Z"
/>
<circle fill="#000000" cx="426.30" cy="229.28" r="22.12"/>
<circle fill="#000000" cx="293.54" cy="229.89" r="21.64"/>
</svg>
